<svg xmlns="http://www.w3.org/2000/svg" xmlns:xlink="http://www.w3.org/1999/xlink" width="300" zoomAndPan="magnify" viewBox="0 0 224.87999 56.249996" height="75" preserveAspectRatio="xMidYMid meet" version="1.0"><defs><filter x="0%" y="0%" width="100%" height="100%" id="d6d5f14230"><feColorMatrix values="0 0 0 0 1 0 0 0 0 1 0 0 0 0 1 0 0 0 1 0" color-interpolation-filters="sRGB"/></filter><g/><mask id="4e4670a740"><g filter="url(#d6d5f14230)"><rect x="-22.487999" width="269.855988" fill="#000000" y="-5.625" height="67.499996" fill-opacity="0.898"/></g></mask><clipPath id="dc8ed0106a"><rect x="0" width="65" y="0" height="54"/></clipPath><mask id="ff650f7d45"><g filter="url(#d6d5f14230)"><rect x="-22.487999" width="269.855988" fill="#000000" y="-5.625" height="67.499996" fill-opacity="0.898"/></g></mask><clipPath id="c3fc6fa5bd"><rect x="0" width="149" y="0" height="54"/></clipPath></defs><g mask="url(#4e4670a740)"><g transform="matrix(1, 0, 0, 1, 5, 0.000000000000004134)"><g clip-path="url(#dc8ed0106a)"><g fill="#022135" fill-opacity="0.3098"><g transform="translate(3.7917, 41.591086)"><g><path d="M 6.375 0.265625 C 4.175781 0.265625 2.46875 -0.304688 1.25 -1.453125 C 0.03125 -2.597656 -0.578125 -4.390625 -0.578125 -6.828125 C -0.578125 -8.878906 -0.175781 -11.140625 0.625 -13.609375 C 1.425781 -16.078125 2.734375 -18.210938 4.546875 -20.015625 C 6.367188 -21.816406 8.675781 -22.71875 11.46875 -22.71875 C 14.738281 -22.71875 16.375 -21.289062 16.375 -18.4375 C 16.375 -16.769531 15.894531 -15.234375 14.9375 -13.828125 C 13.988281 -12.429688 12.726562 -11.304688 11.15625 -10.453125 C 9.582031 -9.609375 7.898438 -9.128906 6.109375 -9.015625 C 6.054688 -8.117188 6.03125 -7.523438 6.03125 -7.234375 C 6.03125 -5.773438 6.28125 -4.785156 6.78125 -4.265625 C 7.289062 -3.742188 8.109375 -3.484375 9.234375 -3.484375 C 10.835938 -3.484375 12.210938 -3.851562 13.359375 -4.59375 C 14.503906 -5.34375 15.765625 -6.472656 17.140625 -7.984375 L 18.65625 -7.984375 C 15.351562 -2.484375 11.257812 0.265625 6.375 0.265625 Z M 6.46875 -11.15625 C 7.570312 -11.21875 8.617188 -11.601562 9.609375 -12.3125 C 10.609375 -13.03125 11.410156 -13.9375 12.015625 -15.03125 C 12.628906 -16.132812 12.9375 -17.296875 12.9375 -18.515625 C 12.9375 -19.734375 12.566406 -20.34375 11.828125 -20.34375 C 10.753906 -20.34375 9.703125 -19.40625 8.671875 -17.53125 C 7.648438 -15.65625 6.914062 -13.53125 6.46875 -11.15625 Z M 6.46875 -11.15625 "/></g></g></g><g fill="#022135" fill-opacity="0.3098"><g transform="translate(20.924272, 41.591086)"><g><path d="M 4.421875 0.265625 C 2.992188 0.265625 1.835938 -0.175781 0.953125 -1.0625 C 0.078125 -1.957031 -0.359375 -3.300781 -0.359375 -5.09375 C -0.359375 -5.832031 -0.238281 -6.796875 0 -7.984375 L 4.78125 -30.34375 L 11.375 -31.234375 L 6.25 -7.140625 C 6.125 -6.691406 6.0625 -6.21875 6.0625 -5.71875 C 6.0625 -5.113281 6.203125 -4.6875 6.484375 -4.4375 C 6.773438 -4.1875 7.25 -4.0625 7.90625 -4.0625 C 8.757812 -4.0625 9.554688 -4.425781 10.296875 -5.15625 C 11.046875 -5.882812 11.585938 -6.828125 11.921875 -7.984375 L 13.796875 -7.984375 C 12.691406 -4.773438 11.273438 -2.597656 9.546875 -1.453125 C 7.828125 -0.304688 6.117188 0.265625 4.421875 0.265625 Z M 4.421875 0.265625 "/></g></g></g><g fill="#022135" fill-opacity="0.3098"><g transform="translate(32.836768, 41.591086)"><g><path d="M 4.421875 0.265625 C 2.992188 0.265625 1.835938 -0.175781 0.953125 -1.0625 C 0.078125 -1.957031 -0.359375 -3.300781 -0.359375 -5.09375 C -0.359375 -5.832031 -0.238281 -6.796875 0 -7.984375 L 4.78125 -30.34375 L 11.375 -31.234375 L 6.25 -7.140625 C 6.125 -6.691406 6.0625 -6.21875 6.0625 -5.71875 C 6.0625 -5.113281 6.203125 -4.6875 6.484375 -4.4375 C 6.773438 -4.1875 7.25 -4.0625 7.90625 -4.0625 C 8.757812 -4.0625 9.554688 -4.425781 10.296875 -5.15625 C 11.046875 -5.882812 11.585938 -6.828125 11.921875 -7.984375 L 13.796875 -7.984375 C 12.691406 -4.773438 11.273438 -2.597656 9.546875 -1.453125 C 7.828125 -0.304688 6.117188 0.265625 4.421875 0.265625 Z M 4.421875 0.265625 "/></g></g></g><g fill="#022135" fill-opacity="0.3098"><g transform="translate(44.749265, 41.591086)"><g><path d="M 6.375 0.265625 C 4.175781 0.265625 2.46875 -0.304688 1.25 -1.453125 C 0.03125 -2.597656 -0.578125 -4.390625 -0.578125 -6.828125 C -0.578125 -8.878906 -0.175781 -11.140625 0.625 -13.609375 C 1.425781 -16.078125 2.734375 -18.210938 4.546875 -20.015625 C 6.367188 -21.816406 8.675781 -22.71875 11.46875 -22.71875 C 14.738281 -22.71875 16.375 -21.289062 16.375 -18.4375 C 16.375 -16.769531 15.894531 -15.234375 14.9375 -13.828125 C 13.988281 -12.429688 12.726562 -11.304688 11.15625 -10.453125 C 9.582031 -9.609375 7.898438 -9.128906 6.109375 -9.015625 C 6.054688 -8.117188 6.03125 -7.523438 6.03125 -7.234375 C 6.03125 -5.773438 6.28125 -4.785156 6.78125 -4.265625 C 7.289062 -3.742188 8.109375 -3.484375 9.234375 -3.484375 C 10.835938 -3.484375 12.210938 -3.851562 13.359375 -4.59375 C 14.503906 -5.34375 15.765625 -6.472656 17.140625 -7.984375 L 18.65625 -7.984375 C 15.351562 -2.484375 11.257812 0.265625 6.375 0.265625 Z M 6.46875 -11.15625 C 7.570312 -11.21875 8.617188 -11.601562 9.609375 -12.3125 C 10.609375 -13.03125 11.410156 -13.9375 12.015625 -15.03125 C 12.628906 -16.132812 12.9375 -17.296875 12.9375 -18.515625 C 12.9375 -19.734375 12.566406 -20.34375 11.828125 -20.34375 C 10.753906 -20.34375 9.703125 -19.40625 8.671875 -17.53125 C 7.648438 -15.65625 6.914062 -13.53125 6.46875 -11.15625 Z M 6.46875 -11.15625 "/></g></g></g><g fill="#79a1b8" fill-opacity="1"><g transform="translate(1.819481, 39.618867)"><g><path d="M 6.375 0.265625 C 4.175781 0.265625 2.46875 -0.304688 1.25 -1.453125 C 0.03125 -2.597656 -0.578125 -4.390625 -0.578125 -6.828125 C -0.578125 -8.878906 -0.175781 -11.140625 0.625 -13.609375 C 1.425781 -16.078125 2.734375 -18.210938 4.546875 -20.015625 C 6.367188 -21.816406 8.675781 -22.71875 11.46875 -22.71875 C 14.738281 -22.71875 16.375 -21.289062 16.375 -18.4375 C 16.375 -16.769531 15.894531 -15.234375 14.9375 -13.828125 C 13.988281 -12.429688 12.726562 -11.304688 11.15625 -10.453125 C 9.582031 -9.609375 7.898438 -9.128906 6.109375 -9.015625 C 6.054688 -8.117188 6.03125 -7.523438 6.03125 -7.234375 C 6.03125 -5.773438 6.28125 -4.785156 6.78125 -4.265625 C 7.289062 -3.742188 8.109375 -3.484375 9.234375 -3.484375 C 10.835938 -3.484375 12.210938 -3.851562 13.359375 -4.59375 C 14.503906 -5.34375 15.765625 -6.472656 17.140625 -7.984375 L 18.65625 -7.984375 C 15.351562 -2.484375 11.257812 0.265625 6.375 0.265625 Z M 6.46875 -11.15625 C 7.570312 -11.21875 8.617188 -11.601562 9.609375 -12.3125 C 10.609375 -13.03125 11.410156 -13.9375 12.015625 -15.03125 C 12.628906 -16.132812 12.9375 -17.296875 12.9375 -18.515625 C 12.9375 -19.734375 12.566406 -20.34375 11.828125 -20.34375 C 10.753906 -20.34375 9.703125 -19.40625 8.671875 -17.53125 C 7.648438 -15.65625 6.914062 -13.53125 6.46875 -11.15625 Z M 6.46875 -11.15625 "/></g></g></g><g fill="#79a1b8" fill-opacity="1"><g transform="translate(18.952053, 39.618867)"><g><path d="M 4.421875 0.265625 C 2.992188 0.265625 1.835938 -0.175781 0.953125 -1.0625 C 0.078125 -1.957031 -0.359375 -3.300781 -0.359375 -5.09375 C -0.359375 -5.832031 -0.238281 -6.796875 0 -7.984375 L 4.78125 -30.34375 L 11.375 -31.234375 L 6.25 -7.140625 C 6.125 -6.691406 6.0625 -6.21875 6.0625 -5.71875 C 6.0625 -5.113281 6.203125 -4.6875 6.484375 -4.4375 C 6.773438 -4.1875 7.25 -4.0625 7.90625 -4.0625 C 8.757812 -4.0625 9.554688 -4.425781 10.296875 -5.15625 C 11.046875 -5.882812 11.585938 -6.828125 11.921875 -7.984375 L 13.796875 -7.984375 C 12.691406 -4.773438 11.273438 -2.597656 9.546875 -1.453125 C 7.828125 -0.304688 6.117188 0.265625 4.421875 0.265625 Z M 4.421875 0.265625 "/></g></g></g><g fill="#79a1b8" fill-opacity="1"><g transform="translate(30.864549, 39.618867)"><g><path d="M 4.421875 0.265625 C 2.992188 0.265625 1.835938 -0.175781 0.953125 -1.0625 C 0.078125 -1.957031 -0.359375 -3.300781 -0.359375 -5.09375 C -0.359375 -5.832031 -0.238281 -6.796875 0 -7.984375 L 4.78125 -30.34375 L 11.375 -31.234375 L 6.25 -7.140625 C 6.125 -6.691406 6.0625 -6.21875 6.0625 -5.71875 C 6.0625 -5.113281 6.203125 -4.6875 6.484375 -4.4375 C 6.773438 -4.1875 7.25 -4.0625 7.90625 -4.0625 C 8.757812 -4.0625 9.554688 -4.425781 10.296875 -5.15625 C 11.046875 -5.882812 11.585938 -6.828125 11.921875 -7.984375 L 13.796875 -7.984375 C 12.691406 -4.773438 11.273438 -2.597656 9.546875 -1.453125 C 7.828125 -0.304688 6.117188 0.265625 4.421875 0.265625 Z M 4.421875 0.265625 "/></g></g></g><g fill="#79a1b8" fill-opacity="1"><g transform="translate(42.777046, 39.618867)"><g><path d="M 6.375 0.265625 C 4.175781 0.265625 2.46875 -0.304688 1.25 -1.453125 C 0.03125 -2.597656 -0.578125 -4.390625 -0.578125 -6.828125 C -0.578125 -8.878906 -0.175781 -11.140625 0.625 -13.609375 C 1.425781 -16.078125 2.734375 -18.210938 4.546875 -20.015625 C 6.367188 -21.816406 8.675781 -22.71875 11.46875 -22.71875 C 14.738281 -22.71875 16.375 -21.289062 16.375 -18.4375 C 16.375 -16.769531 15.894531 -15.234375 14.9375 -13.828125 C 13.988281 -12.429688 12.726562 -11.304688 11.15625 -10.453125 C 9.582031 -9.609375 7.898438 -9.128906 6.109375 -9.015625 C 6.054688 -8.117188 6.03125 -7.523438 6.03125 -7.234375 C 6.03125 -5.773438 6.28125 -4.785156 6.78125 -4.265625 C 7.289062 -3.742188 8.109375 -3.484375 9.234375 -3.484375 C 10.835938 -3.484375 12.210938 -3.851562 13.359375 -4.59375 C 14.503906 -5.34375 15.765625 -6.472656 17.140625 -7.984375 L 18.65625 -7.984375 C 15.351562 -2.484375 11.257812 0.265625 6.375 0.265625 Z M 6.46875 -11.15625 C 7.570312 -11.21875 8.617188 -11.601562 9.609375 -12.3125 C 10.609375 -13.03125 11.410156 -13.9375 12.015625 -15.03125 C 12.628906 -16.132812 12.9375 -17.296875 12.9375 -18.515625 C 12.9375 -19.734375 12.566406 -20.34375 11.828125 -20.34375 C 10.753906 -20.34375 9.703125 -19.40625 8.671875 -17.53125 C 7.648438 -15.65625 6.914062 -13.53125 6.46875 -11.15625 Z M 6.46875 -11.15625 "/></g></g></g></g></g></g><g mask="url(#ff650f7d45)"><g transform="matrix(1, 0, 0, 1, 73, 0.000000000000004134)"><g clip-path="url(#c3fc6fa5bd)"><g fill="#022135" fill-opacity="0.3098"><g transform="translate(3.427779, 41.591086)"><g><path d="M 4.421875 0.265625 C 2.992188 0.265625 1.835938 -0.175781 0.953125 -1.0625 C 0.078125 -1.957031 -0.359375 -3.300781 -0.359375 -5.09375 C -0.359375 -5.832031 -0.238281 -6.796875 0 -7.984375 L 4.78125 -30.34375 L 11.375 -31.234375 L 6.25 -7.140625 C 6.125 -6.691406 6.0625 -6.21875 6.0625 -5.71875 C 6.0625 -5.113281 6.203125 -4.6875 6.484375 -4.4375 C 6.773438 -4.1875 7.25 -4.0625 7.90625 -4.0625 C 8.757812 -4.0625 9.554688 -4.425781 10.296875 -5.15625 C 11.046875 -5.882812 11.585938 -6.828125 11.921875 -7.984375 L 13.796875 -7.984375 C 12.691406 -4.773438 11.273438 -2.597656 9.546875 -1.453125 C 7.828125 -0.304688 6.117188 0.265625 4.421875 0.265625 Z M 4.421875 0.265625 "/></g></g></g><g fill="#022135" fill-opacity="0.3098"><g transform="translate(15.340276, 41.591086)"><g><path d="M 14.015625 -33.46875 L 18.703125 -33.46875 L 13.296875 -25.03125 L 9.953125 -25.03125 Z M 6.375 0.265625 C 4.175781 0.265625 2.46875 -0.304688 1.25 -1.453125 C 0.03125 -2.597656 -0.578125 -4.390625 -0.578125 -6.828125 C -0.578125 -8.878906 -0.175781 -11.140625 0.625 -13.609375 C 1.425781 -16.078125 2.734375 -18.210938 4.546875 -20.015625 C 6.367188 -21.816406 8.675781 -22.71875 11.46875 -22.71875 C 14.738281 -22.71875 16.375 -21.289062 16.375 -18.4375 C 16.375 -16.769531 15.894531 -15.234375 14.9375 -13.828125 C 13.988281 -12.429688 12.726562 -11.304688 11.15625 -10.453125 C 9.582031 -9.609375 7.898438 -9.128906 6.109375 -9.015625 C 6.054688 -8.117188 6.03125 -7.523438 6.03125 -7.234375 C 6.03125 -5.773438 6.28125 -4.785156 6.78125 -4.265625 C 7.289062 -3.742188 8.109375 -3.484375 9.234375 -3.484375 C 10.835938 -3.484375 12.210938 -3.851562 13.359375 -4.59375 C 14.503906 -5.34375 15.765625 -6.472656 17.140625 -7.984375 L 18.65625 -7.984375 C 15.351562 -2.484375 11.257812 0.265625 6.375 0.265625 Z M 6.46875 -11.15625 C 7.570312 -11.21875 8.617188 -11.601562 9.609375 -12.3125 C 10.609375 -13.03125 11.410156 -13.9375 12.015625 -15.03125 C 12.628906 -16.132812 12.9375 -17.296875 12.9375 -18.515625 C 12.9375 -19.734375 12.566406 -20.34375 11.828125 -20.34375 C 10.753906 -20.34375 9.703125 -19.40625 8.671875 -17.53125 C 7.648438 -15.65625 6.914062 -13.53125 6.46875 -11.15625 Z M 6.46875 -11.15625 "/></g></g></g><g fill="#022135" fill-opacity="0.3098"><g transform="translate(32.472847, 41.591086)"><g><path d="M 5.09375 0.265625 C 3.363281 0.265625 2.015625 -0.171875 1.046875 -1.046875 C 0.078125 -1.921875 -0.40625 -3.238281 -0.40625 -5 C -0.40625 -5.707031 -0.328125 -6.421875 -0.171875 -7.140625 L 3.03125 -22.3125 L 9.453125 -22.3125 L 6.25 -7.140625 C 6.101562 -6.398438 6.03125 -5.863281 6.03125 -5.53125 C 6.03125 -4.550781 6.535156 -4.0625 7.546875 -4.0625 C 8.910156 -4.0625 10.179688 -4.921875 11.359375 -6.640625 C 12.535156 -8.367188 13.476562 -10.421875 14.1875 -12.796875 C 14.90625 -15.179688 15.265625 -17.238281 15.265625 -18.96875 C 15.203125 -18.820312 15.003906 -18.707031 14.671875 -18.625 C 14.347656 -18.550781 14.066406 -18.515625 13.828125 -18.515625 C 13.328125 -18.515625 12.9375 -18.753906 12.65625 -19.234375 C 12.375 -19.710938 12.234375 -20.234375 12.234375 -20.796875 C 12.234375 -21.503906 12.460938 -22.082031 12.921875 -22.53125 C 13.378906 -22.976562 14.070312 -23.203125 15 -23.203125 C 15.976562 -23.203125 16.691406 -22.835938 17.140625 -22.109375 C 17.585938 -21.378906 17.8125 -20.453125 17.8125 -19.328125 C 17.8125 -16.648438 17.347656 -13.785156 16.421875 -10.734375 C 15.492188 -7.679688 14.078125 -5.082031 12.171875 -2.9375 C 10.273438 -0.800781 7.914062 0.265625 5.09375 0.265625 Z M 5.09375 0.265625 "/></g></g></g><g fill="#022135" fill-opacity="0.3098"><g transform="translate(50.943902, 41.591086)"><g><path d="M 6.375 0.265625 C 4.175781 0.265625 2.46875 -0.304688 1.25 -1.453125 C 0.03125 -2.597656 -0.578125 -4.390625 -0.578125 -6.828125 C -0.578125 -8.878906 -0.175781 -11.140625 0.625 -13.609375 C 1.425781 -16.078125 2.734375 -18.210938 4.546875 -20.015625 C 6.367188 -21.816406 8.675781 -22.71875 11.46875 -22.71875 C 14.738281 -22.71875 16.375 -21.289062 16.375 -18.4375 C 16.375 -16.769531 15.894531 -15.234375 14.9375 -13.828125 C 13.988281 -12.429688 12.726562 -11.304688 11.15625 -10.453125 C 9.582031 -9.609375 7.898438 -9.128906 6.109375 -9.015625 C 6.054688 -8.117188 6.03125 -7.523438 6.03125 -7.234375 C 6.03125 -5.773438 6.28125 -4.785156 6.78125 -4.265625 C 7.289062 -3.742188 8.109375 -3.484375 9.234375 -3.484375 C 10.835938 -3.484375 12.210938 -3.851562 13.359375 -4.59375 C 14.503906 -5.34375 15.765625 -6.472656 17.140625 -7.984375 L 18.65625 -7.984375 C 15.351562 -2.484375 11.257812 0.265625 6.375 0.265625 Z M 6.46875 -11.15625 C 7.570312 -11.21875 8.617188 -11.601562 9.609375 -12.3125 C 10.609375 -13.03125 11.410156 -13.9375 12.015625 -15.03125 C 12.628906 -16.132812 12.9375 -17.296875 12.9375 -18.515625 C 12.9375 -19.734375 12.566406 -20.34375 11.828125 -20.34375 C 10.753906 -20.34375 9.703125 -19.40625 8.671875 -17.53125 C 7.648438 -15.65625 6.914062 -13.53125 6.46875 -11.15625 Z M 6.46875 -11.15625 "/></g></g></g><g fill="#022135" fill-opacity="0.3098"><g transform="translate(68.076474, 41.591086)"><g><path d="M 5.09375 0.265625 C 3.65625 0.265625 2.445312 -0.0078125 1.46875 -0.5625 C 0.488281 -1.113281 -0.234375 -1.828125 -0.703125 -2.703125 C -1.179688 -3.578125 -1.421875 -4.488281 -1.421875 -5.4375 C -1.421875 -6.425781 -1.191406 -7.285156 -0.734375 -8.015625 C -0.273438 -8.742188 0.28125 -9.269531 0.9375 -9.59375 C 2.09375 -11.675781 3.101562 -13.78125 3.96875 -15.90625 C 4.832031 -18.03125 5.648438 -20.328125 6.421875 -22.796875 L 13.03125 -23.703125 C 13.175781 -19.890625 13.429688 -15.765625 13.796875 -11.328125 C 13.941406 -9.546875 14.015625 -8.253906 14.015625 -7.453125 C 14.015625 -6.765625 13.953125 -6.195312 13.828125 -5.75 C 15.234375 -6.5625 16.304688 -7.304688 17.046875 -7.984375 L 18.921875 -7.984375 C 17.015625 -5.785156 14.738281 -3.925781 12.09375 -2.40625 C 11.226562 -1.488281 10.160156 -0.8125 8.890625 -0.375 C 7.628906 0.0507812 6.363281 0.265625 5.09375 0.265625 Z M 3.65625 -3.25 C 4.757812 -3.25 5.679688 -3.578125 6.421875 -4.234375 C 7.171875 -4.890625 7.546875 -5.945312 7.546875 -7.40625 C 7.546875 -8.300781 7.457031 -9.550781 7.28125 -11.15625 C 6.976562 -14.550781 6.78125 -16.828125 6.6875 -17.984375 C 5.976562 -15.628906 4.773438 -12.816406 3.078125 -9.546875 C 3.765625 -9.191406 4.109375 -8.671875 4.109375 -7.984375 C 4.109375 -7.421875 3.921875 -6.914062 3.546875 -6.46875 C 3.171875 -6.019531 2.703125 -5.796875 2.140625 -5.796875 C 1.515625 -5.796875 1.113281 -5.988281 0.9375 -6.375 C 0.9375 -5.3125 1.148438 -4.523438 1.578125 -4.015625 C 2.015625 -3.503906 2.707031 -3.25 3.65625 -3.25 Z M 3.65625 -3.25 "/></g></g></g><g fill="#022135" fill-opacity="0.3098"><g transform="translate(85.119816, 41.591086)"><g><path d="M 10.671875 -2.1875 C 9.148438 -0.550781 7.378906 0.265625 5.359375 0.265625 C 3.660156 0.265625 2.242188 -0.3125 1.109375 -1.46875 C -0.015625 -2.632812 -0.578125 -4.453125 -0.578125 -6.921875 C -0.578125 -9.117188 -0.140625 -11.429688 0.734375 -13.859375 C 1.609375 -16.285156 2.914062 -18.335938 4.65625 -20.015625 C 6.40625 -21.691406 8.484375 -22.53125 10.890625 -22.53125 C 12.109375 -22.53125 13.015625 -22.320312 13.609375 -21.90625 C 14.203125 -21.488281 14.5 -20.941406 14.5 -20.265625 L 14.5 -20.171875 L 14.953125 -22.3125 L 21.375 -22.3125 L 14.59375 9.546875 L 7.859375 11.15625 Z M 8.25 -4.0625 C 8.90625 -4.0625 9.566406 -4.34375 10.234375 -4.90625 C 10.910156 -5.46875 11.410156 -6.242188 11.734375 -7.234375 L 14.09375 -18.25 C 13.863281 -19.257812 13.253906 -19.765625 12.265625 -19.765625 C 11.078125 -19.765625 10.003906 -19.070312 9.046875 -17.6875 C 8.097656 -16.3125 7.359375 -14.644531 6.828125 -12.6875 C 6.296875 -10.738281 6.03125 -9.023438 6.03125 -7.546875 C 6.03125 -6.054688 6.242188 -5.101562 6.671875 -4.6875 C 7.097656 -4.269531 7.625 -4.0625 8.25 -4.0625 Z M 8.25 -4.0625 "/></g></g></g><g fill="#022135" fill-opacity="0.3098"><g transform="translate(106.803231, 41.591086)"><g><path d="M 4.421875 0.265625 C 2.992188 0.265625 1.835938 -0.175781 0.953125 -1.0625 C 0.078125 -1.957031 -0.359375 -3.300781 -0.359375 -5.09375 C -0.359375 -5.832031 -0.238281 -6.796875 0 -7.984375 L 3.03125 -22.3125 L 9.453125 -22.3125 L 6.25 -7.140625 C 6.15625 -6.691406 6.109375 -6.273438 6.109375 -5.890625 C 6.109375 -4.671875 6.554688 -4.0625 7.453125 -4.0625 C 8.285156 -4.0625 9 -4.410156 9.59375 -5.109375 C 10.1875 -5.804688 10.660156 -6.765625 11.015625 -7.984375 L 14.0625 -22.3125 L 20.484375 -22.3125 L 17.265625 -7.140625 C 17.148438 -6.691406 17.09375 -6.21875 17.09375 -5.71875 C 17.09375 -5.113281 17.234375 -4.6875 17.515625 -4.4375 C 17.796875 -4.1875 18.265625 -4.0625 18.921875 -4.0625 C 19.753906 -4.0625 20.472656 -4.414062 21.078125 -5.125 C 21.691406 -5.84375 22.175781 -6.796875 22.53125 -7.984375 L 24.40625 -7.984375 C 23.3125 -4.773438 21.953125 -2.597656 20.328125 -1.453125 C 18.703125 -0.304688 17.070312 0.265625 15.4375 0.265625 C 14.15625 0.265625 13.132812 -0.0859375 12.375 -0.796875 C 11.625 -1.515625 11.171875 -2.570312 11.015625 -3.96875 C 10.003906 -2.332031 8.941406 -1.21875 7.828125 -0.625 C 6.710938 -0.03125 5.578125 0.265625 4.421875 0.265625 Z M 4.421875 0.265625 "/></g></g></g><g fill="#022135" fill-opacity="0.3098"><g transform="translate(129.334349, 41.591086)"><g><path d="M 6.375 0.265625 C 4.175781 0.265625 2.46875 -0.304688 1.25 -1.453125 C 0.03125 -2.597656 -0.578125 -4.390625 -0.578125 -6.828125 C -0.578125 -8.878906 -0.175781 -11.140625 0.625 -13.609375 C 1.425781 -16.078125 2.734375 -18.210938 4.546875 -20.015625 C 6.367188 -21.816406 8.675781 -22.71875 11.46875 -22.71875 C 14.738281 -22.71875 16.375 -21.289062 16.375 -18.4375 C 16.375 -16.769531 15.894531 -15.234375 14.9375 -13.828125 C 13.988281 -12.429688 12.726562 -11.304688 11.15625 -10.453125 C 9.582031 -9.609375 7.898438 -9.128906 6.109375 -9.015625 C 6.054688 -8.117188 6.03125 -7.523438 6.03125 -7.234375 C 6.03125 -5.773438 6.28125 -4.785156 6.78125 -4.265625 C 7.289062 -3.742188 8.109375 -3.484375 9.234375 -3.484375 C 10.835938 -3.484375 12.210938 -3.851562 13.359375 -4.59375 C 14.503906 -5.34375 15.765625 -6.472656 17.140625 -7.984375 L 18.65625 -7.984375 C 15.351562 -2.484375 11.257812 0.265625 6.375 0.265625 Z M 6.46875 -11.15625 C 7.570312 -11.21875 8.617188 -11.601562 9.609375 -12.3125 C 10.609375 -13.03125 11.410156 -13.9375 12.015625 -15.03125 C 12.628906 -16.132812 12.9375 -17.296875 12.9375 -18.515625 C 12.9375 -19.734375 12.566406 -20.34375 11.828125 -20.34375 C 10.753906 -20.34375 9.703125 -19.40625 8.671875 -17.53125 C 7.648438 -15.65625 6.914062 -13.53125 6.46875 -11.15625 Z M 6.46875 -11.15625 "/></g></g></g><g fill="#79a1b8" fill-opacity="1"><g transform="translate(1.45556, 39.618867)"><g><path d="M 4.421875 0.265625 C 2.992188 0.265625 1.835938 -0.175781 0.953125 -1.0625 C 0.078125 -1.957031 -0.359375 -3.300781 -0.359375 -5.09375 C -0.359375 -5.832031 -0.238281 -6.796875 0 -7.984375 L 4.78125 -30.34375 L 11.375 -31.234375 L 6.25 -7.140625 C 6.125 -6.691406 6.0625 -6.21875 6.0625 -5.71875 C 6.0625 -5.113281 6.203125 -4.6875 6.484375 -4.4375 C 6.773438 -4.1875 7.25 -4.0625 7.90625 -4.0625 C 8.757812 -4.0625 9.554688 -4.425781 10.296875 -5.15625 C 11.046875 -5.882812 11.585938 -6.828125 11.921875 -7.984375 L 13.796875 -7.984375 C 12.691406 -4.773438 11.273438 -2.597656 9.546875 -1.453125 C 7.828125 -0.304688 6.117188 0.265625 4.421875 0.265625 Z M 4.421875 0.265625 "/></g></g></g><g fill="#79a1b8" fill-opacity="1"><g transform="translate(13.368056, 39.618867)"><g><path d="M 14.015625 -33.46875 L 18.703125 -33.46875 L 13.296875 -25.03125 L 9.953125 -25.03125 Z M 6.375 0.265625 C 4.175781 0.265625 2.46875 -0.304688 1.25 -1.453125 C 0.03125 -2.597656 -0.578125 -4.390625 -0.578125 -6.828125 C -0.578125 -8.878906 -0.175781 -11.140625 0.625 -13.609375 C 1.425781 -16.078125 2.734375 -18.210938 4.546875 -20.015625 C 6.367188 -21.816406 8.675781 -22.71875 11.46875 -22.71875 C 14.738281 -22.71875 16.375 -21.289062 16.375 -18.4375 C 16.375 -16.769531 15.894531 -15.234375 14.9375 -13.828125 C 13.988281 -12.429688 12.726562 -11.304688 11.15625 -10.453125 C 9.582031 -9.609375 7.898438 -9.128906 6.109375 -9.015625 C 6.054688 -8.117188 6.03125 -7.523438 6.03125 -7.234375 C 6.03125 -5.773438 6.28125 -4.785156 6.78125 -4.265625 C 7.289062 -3.742188 8.109375 -3.484375 9.234375 -3.484375 C 10.835938 -3.484375 12.210938 -3.851562 13.359375 -4.59375 C 14.503906 -5.34375 15.765625 -6.472656 17.140625 -7.984375 L 18.65625 -7.984375 C 15.351562 -2.484375 11.257812 0.265625 6.375 0.265625 Z M 6.46875 -11.15625 C 7.570312 -11.21875 8.617188 -11.601562 9.609375 -12.3125 C 10.609375 -13.03125 11.410156 -13.9375 12.015625 -15.03125 C 12.628906 -16.132812 12.9375 -17.296875 12.9375 -18.515625 C 12.9375 -19.734375 12.566406 -20.34375 11.828125 -20.34375 C 10.753906 -20.34375 9.703125 -19.40625 8.671875 -17.53125 C 7.648438 -15.65625 6.914062 -13.53125 6.46875 -11.15625 Z M 6.46875 -11.15625 "/></g></g></g><g fill="#79a1b8" fill-opacity="1"><g transform="translate(30.500628, 39.618867)"><g><path d="M 5.09375 0.265625 C 3.363281 0.265625 2.015625 -0.171875 1.046875 -1.046875 C 0.078125 -1.921875 -0.40625 -3.238281 -0.40625 -5 C -0.40625 -5.707031 -0.328125 -6.421875 -0.171875 -7.140625 L 3.03125 -22.3125 L 9.453125 -22.3125 L 6.25 -7.140625 C 6.101562 -6.398438 6.03125 -5.863281 6.03125 -5.53125 C 6.03125 -4.550781 6.535156 -4.0625 7.546875 -4.0625 C 8.910156 -4.0625 10.179688 -4.921875 11.359375 -6.640625 C 12.535156 -8.367188 13.476562 -10.421875 14.1875 -12.796875 C 14.90625 -15.179688 15.265625 -17.238281 15.265625 -18.96875 C 15.203125 -18.820312 15.003906 -18.707031 14.671875 -18.625 C 14.347656 -18.550781 14.066406 -18.515625 13.828125 -18.515625 C 13.328125 -18.515625 12.9375 -18.753906 12.65625 -19.234375 C 12.375 -19.710938 12.234375 -20.234375 12.234375 -20.796875 C 12.234375 -21.503906 12.460938 -22.082031 12.921875 -22.53125 C 13.378906 -22.976562 14.070312 -23.203125 15 -23.203125 C 15.976562 -23.203125 16.691406 -22.835938 17.140625 -22.109375 C 17.585938 -21.378906 17.8125 -20.453125 17.8125 -19.328125 C 17.8125 -16.648438 17.347656 -13.785156 16.421875 -10.734375 C 15.492188 -7.679688 14.078125 -5.082031 12.171875 -2.9375 C 10.273438 -0.800781 7.914062 0.265625 5.09375 0.265625 Z M 5.09375 0.265625 "/></g></g></g><g fill="#79a1b8" fill-opacity="1"><g transform="translate(48.971683, 39.618867)"><g><path d="M 6.375 0.265625 C 4.175781 0.265625 2.46875 -0.304688 1.25 -1.453125 C 0.03125 -2.597656 -0.578125 -4.390625 -0.578125 -6.828125 C -0.578125 -8.878906 -0.175781 -11.140625 0.625 -13.609375 C 1.425781 -16.078125 2.734375 -18.210938 4.546875 -20.015625 C 6.367188 -21.816406 8.675781 -22.71875 11.46875 -22.71875 C 14.738281 -22.71875 16.375 -21.289062 16.375 -18.4375 C 16.375 -16.769531 15.894531 -15.234375 14.9375 -13.828125 C 13.988281 -12.429688 12.726562 -11.304688 11.15625 -10.453125 C 9.582031 -9.609375 7.898438 -9.128906 6.109375 -9.015625 C 6.054688 -8.117188 6.03125 -7.523438 6.03125 -7.234375 C 6.03125 -5.773438 6.28125 -4.785156 6.78125 -4.265625 C 7.289062 -3.742188 8.109375 -3.484375 9.234375 -3.484375 C 10.835938 -3.484375 12.210938 -3.851562 13.359375 -4.59375 C 14.503906 -5.34375 15.765625 -6.472656 17.140625 -7.984375 L 18.65625 -7.984375 C 15.351562 -2.484375 11.257812 0.265625 6.375 0.265625 Z M 6.46875 -11.15625 C 7.570312 -11.21875 8.617188 -11.601562 9.609375 -12.3125 C 10.609375 -13.03125 11.410156 -13.9375 12.015625 -15.03125 C 12.628906 -16.132812 12.9375 -17.296875 12.9375 -18.515625 C 12.9375 -19.734375 12.566406 -20.34375 11.828125 -20.34375 C 10.753906 -20.34375 9.703125 -19.40625 8.671875 -17.53125 C 7.648438 -15.65625 6.914062 -13.53125 6.46875 -11.15625 Z M 6.46875 -11.15625 "/></g></g></g><g fill="#79a1b8" fill-opacity="1"><g transform="translate(66.104255, 39.618867)"><g><path d="M 5.09375 0.265625 C 3.65625 0.265625 2.445312 -0.0078125 1.46875 -0.5625 C 0.488281 -1.113281 -0.234375 -1.828125 -0.703125 -2.703125 C -1.179688 -3.578125 -1.421875 -4.488281 -1.421875 -5.4375 C -1.421875 -6.425781 -1.191406 -7.285156 -0.734375 -8.015625 C -0.273438 -8.742188 0.28125 -9.269531 0.9375 -9.59375 C 2.09375 -11.675781 3.101562 -13.78125 3.96875 -15.90625 C 4.832031 -18.03125 5.648438 -20.328125 6.421875 -22.796875 L 13.03125 -23.703125 C 13.175781 -19.890625 13.429688 -15.765625 13.796875 -11.328125 C 13.941406 -9.546875 14.015625 -8.253906 14.015625 -7.453125 C 14.015625 -6.765625 13.953125 -6.195312 13.828125 -5.75 C 15.234375 -6.5625 16.304688 -7.304688 17.046875 -7.984375 L 18.921875 -7.984375 C 17.015625 -5.785156 14.738281 -3.925781 12.09375 -2.40625 C 11.226562 -1.488281 10.160156 -0.8125 8.890625 -0.375 C 7.628906 0.0507812 6.363281 0.265625 5.09375 0.265625 Z M 3.65625 -3.25 C 4.757812 -3.25 5.679688 -3.578125 6.421875 -4.234375 C 7.171875 -4.890625 7.546875 -5.945312 7.546875 -7.40625 C 7.546875 -8.300781 7.457031 -9.550781 7.28125 -11.15625 C 6.976562 -14.550781 6.78125 -16.828125 6.6875 -17.984375 C 5.976562 -15.628906 4.773438 -12.816406 3.078125 -9.546875 C 3.765625 -9.191406 4.109375 -8.671875 4.109375 -7.984375 C 4.109375 -7.421875 3.921875 -6.914062 3.546875 -6.46875 C 3.171875 -6.019531 2.703125 -5.796875 2.140625 -5.796875 C 1.515625 -5.796875 1.113281 -5.988281 0.9375 -6.375 C 0.9375 -5.3125 1.148438 -4.523438 1.578125 -4.015625 C 2.015625 -3.503906 2.707031 -3.25 3.65625 -3.25 Z M 3.65625 -3.25 "/></g></g></g><g fill="#79a1b8" fill-opacity="1"><g transform="translate(83.147596, 39.618867)"><g><path d="M 10.671875 -2.1875 C 9.148438 -0.550781 7.378906 0.265625 5.359375 0.265625 C 3.660156 0.265625 2.242188 -0.3125 1.109375 -1.46875 C -0.015625 -2.632812 -0.578125 -4.453125 -0.578125 -6.921875 C -0.578125 -9.117188 -0.140625 -11.429688 0.734375 -13.859375 C 1.609375 -16.285156 2.914062 -18.335938 4.65625 -20.015625 C 6.40625 -21.691406 8.484375 -22.53125 10.890625 -22.53125 C 12.109375 -22.53125 13.015625 -22.320312 13.609375 -21.90625 C 14.203125 -21.488281 14.5 -20.941406 14.5 -20.265625 L 14.5 -20.171875 L 14.953125 -22.3125 L 21.375 -22.3125 L 14.59375 9.546875 L 7.859375 11.15625 Z M 8.25 -4.0625 C 8.90625 -4.0625 9.566406 -4.34375 10.234375 -4.90625 C 10.910156 -5.46875 11.410156 -6.242188 11.734375 -7.234375 L 14.09375 -18.25 C 13.863281 -19.257812 13.253906 -19.765625 12.265625 -19.765625 C 11.078125 -19.765625 10.003906 -19.070312 9.046875 -17.6875 C 8.097656 -16.3125 7.359375 -14.644531 6.828125 -12.6875 C 6.296875 -10.738281 6.03125 -9.023438 6.03125 -7.546875 C 6.03125 -6.054688 6.242188 -5.101562 6.671875 -4.6875 C 7.097656 -4.269531 7.625 -4.0625 8.25 -4.0625 Z M 8.25 -4.0625 "/></g></g></g><g fill="#79a1b8" fill-opacity="1"><g transform="translate(104.831012, 39.618867)"><g><path d="M 4.421875 0.265625 C 2.992188 0.265625 1.835938 -0.175781 0.953125 -1.0625 C 0.078125 -1.957031 -0.359375 -3.300781 -0.359375 -5.09375 C -0.359375 -5.832031 -0.238281 -6.796875 0 -7.984375 L 3.03125 -22.3125 L 9.453125 -22.3125 L 6.25 -7.140625 C 6.15625 -6.691406 6.109375 -6.273438 6.109375 -5.890625 C 6.109375 -4.671875 6.554688 -4.0625 7.453125 -4.0625 C 8.285156 -4.0625 9 -4.410156 9.59375 -5.109375 C 10.1875 -5.804688 10.660156 -6.765625 11.015625 -7.984375 L 14.0625 -22.3125 L 20.484375 -22.3125 L 17.265625 -7.140625 C 17.148438 -6.691406 17.09375 -6.21875 17.09375 -5.71875 C 17.09375 -5.113281 17.234375 -4.6875 17.515625 -4.4375 C 17.796875 -4.1875 18.265625 -4.0625 18.921875 -4.0625 C 19.753906 -4.0625 20.472656 -4.414062 21.078125 -5.125 C 21.691406 -5.84375 22.175781 -6.796875 22.53125 -7.984375 L 24.40625 -7.984375 C 23.3125 -4.773438 21.953125 -2.597656 20.328125 -1.453125 C 18.703125 -0.304688 17.070312 0.265625 15.4375 0.265625 C 14.15625 0.265625 13.132812 -0.0859375 12.375 -0.796875 C 11.625 -1.515625 11.171875 -2.570312 11.015625 -3.96875 C 10.003906 -2.332031 8.941406 -1.21875 7.828125 -0.625 C 6.710938 -0.03125 5.578125 0.265625 4.421875 0.265625 Z M 4.421875 0.265625 "/></g></g></g><g fill="#79a1b8" fill-opacity="1"><g transform="translate(127.36213, 39.618867)"><g><path d="M 6.375 0.265625 C 4.175781 0.265625 2.46875 -0.304688 1.25 -1.453125 C 0.03125 -2.597656 -0.578125 -4.390625 -0.578125 -6.828125 C -0.578125 -8.878906 -0.175781 -11.140625 0.625 -13.609375 C 1.425781 -16.078125 2.734375 -18.210938 4.546875 -20.015625 C 6.367188 -21.816406 8.675781 -22.71875 11.46875 -22.71875 C 14.738281 -22.71875 16.375 -21.289062 16.375 -18.4375 C 16.375 -16.769531 15.894531 -15.234375 14.9375 -13.828125 C 13.988281 -12.429688 12.726562 -11.304688 11.15625 -10.453125 C 9.582031 -9.609375 7.898438 -9.128906 6.109375 -9.015625 C 6.054688 -8.117188 6.03125 -7.523438 6.03125 -7.234375 C 6.03125 -5.773438 6.28125 -4.785156 6.78125 -4.265625 C 7.289062 -3.742188 8.109375 -3.484375 9.234375 -3.484375 C 10.835938 -3.484375 12.210938 -3.851562 13.359375 -4.59375 C 14.503906 -5.34375 15.765625 -6.472656 17.140625 -7.984375 L 18.65625 -7.984375 C 15.351562 -2.484375 11.257812 0.265625 6.375 0.265625 Z M 6.46875 -11.15625 C 7.570312 -11.21875 8.617188 -11.601562 9.609375 -12.3125 C 10.609375 -13.03125 11.410156 -13.9375 12.015625 -15.03125 C 12.628906 -16.132812 12.9375 -17.296875 12.9375 -18.515625 C 12.9375 -19.734375 12.566406 -20.34375 11.828125 -20.34375 C 10.753906 -20.34375 9.703125 -19.40625 8.671875 -17.53125 C 7.648438 -15.65625 6.914062 -13.53125 6.46875 -11.15625 Z M 6.46875 -11.15625 "/></g></g></g></g></g></g></svg>